<?xml version="1.0" encoding="UTF-8" standalone="no"?>
<!DOCTYPE svg PUBLIC "-//W3C//DTD SVG 1.1//EN" "http://www.w3.org/Graphics/SVG/1.1/DTD/svg11.dtd">
<svg width="100%" height="100%" viewBox="0 0 2175 471" version="1.1" xmlns="http://www.w3.org/2000/svg" xmlns:xlink="http://www.w3.org/1999/xlink" xml:space="preserve" xmlns:serif="http://www.serif.com/" style="fill-rule:evenodd;clip-rule:evenodd;stroke-linejoin:round;stroke-miterlimit:2;">
    <g transform="matrix(1,0,0,1,-3827,-422.279)">
        <g transform="matrix(2.77443,0,0,1.49722,3563.62,0)">
            <g transform="matrix(0.360435,0,0,0.667904,-1284.45,0)">
                <path d="M4019.55,423.405C4125.82,423.405 4212.1,509.683 4212.1,615.953C4212.1,722.222 4125.82,808.5 4019.55,808.5C3913.28,808.5 3827,722.222 3827,615.953C3827,509.683 3913.28,423.405 4019.55,423.405ZM3966.32,498.381C3967.48,492.081 3973.01,487.305 3979.65,487.305L4003.04,487.305C4010.53,487.305 4016.6,493.381 4016.6,500.865C4016.6,508.349 4010.53,514.425 4003.04,514.425L3993.21,514.425L3993.21,661.985C3994.5,657.952 3996.36,654.104 3998.71,650.584C4004.05,642.595 4011.92,636.393 4020.95,633.098C4025.77,631.338 4030.87,630.436 4036,630.362L4036.29,630.36C4043.78,630.324 4049.88,636.371 4049.92,643.855C4050.04,668.937 4029.77,689.397 4004.69,689.517C4003.71,689.516 4002.74,689.424 4001.79,689.22C4000.75,689 3999.75,688.655 3998.8,688.2C4007.51,705.555 4025.47,717.481 4046.2,717.481C4075.44,717.481 4099.19,693.737 4099.19,664.491C4099.19,635.245 4075.44,611.501 4046.2,611.501C4025.31,611.501 4008.34,594.539 4008.34,573.647C4008.34,552.755 4025.31,535.793 4046.2,535.793C4067.09,535.793 4084.05,552.755 4084.05,573.647C4084.05,580.153 4082.41,586.278 4079.51,591.627C4107.11,604.28 4126.31,632.162 4126.31,664.491C4126.31,708.704 4090.41,744.6 4046.2,744.6L3959.89,744.6C3952.4,744.6 3946.33,738.524 3946.33,731.04C3946.33,723.557 3952.4,717.481 3959.89,717.481L3986.14,717.481C3973.66,703.351 3966.09,684.798 3966.09,664.491C3966.09,664.491 3966.09,659.102 3966.09,659.102L3965.74,659.347C3964.74,660.026 3963.67,660.57 3962.53,660.974L3962.37,661.028C3962.16,661.097 3961.94,661.162 3961.73,661.223L3961.41,661.309C3961.02,661.403 3960.64,661.482 3960.25,661.547L3959.8,661.611C3959.53,661.646 3959.25,661.673 3958.97,661.691L3958.37,661.717C3958.19,661.72 3958.19,661.72 3958.02,661.72C3932.94,661.6 3912.67,641.139 3912.79,616.057C3912.81,611.555 3915.03,607.573 3918.42,605.123L3918.82,604.844L3919.22,604.588C3919.85,604.2 3920.51,603.861 3921.2,603.578C3922.22,603.156 3923.31,602.857 3924.43,602.697C3924.66,602.665 3924.89,602.638 3925.12,602.618L3925.72,602.577C3925.95,602.566 3926.18,602.562 3926.41,602.563C3943.53,602.644 3958.41,612.201 3966.09,626.233L3966.09,500.865L3966.13,499.792L3966.23,498.872L3966.32,498.381ZM4046.2,584.382C4052.12,584.382 4056.93,579.572 4056.93,573.647C4056.93,567.722 4052.12,562.912 4046.2,562.912C4040.27,562.912 4035.46,567.722 4035.46,573.647C4035.46,579.572 4040.27,584.382 4046.2,584.382Z" style="fill:white;"/>
            </g>
            <g transform="matrix(1.32785,0,0,2.46058,-780.463,-536.509)">
                <path d="M1246.76,408.697C1247.64,408.697 1248.33,409.104 1248.84,409.919C1249.35,410.733 1249.61,411.853 1249.61,413.277C1249.61,415.72 1249.03,417.824 1247.88,419.588C1245.98,422.506 1243.48,424.779 1240.39,426.407C1237.31,428.036 1233.62,428.85 1229.35,428.85C1222.84,428.85 1217.78,426.899 1214.18,422.998C1210.59,419.096 1208.79,413.82 1208.79,407.171C1208.79,402.489 1209.77,398.129 1211.74,394.091C1213.71,390.054 1216.44,386.848 1219.94,384.473C1223.43,382.098 1227.38,380.911 1231.79,380.911C1235.73,380.911 1238.88,382.081 1241.26,384.422C1243.63,386.763 1244.82,389.935 1244.82,393.939C1244.82,398.621 1243.14,402.641 1239.78,406C1236.42,409.359 1230.71,412.022 1222.63,413.99C1224.26,417.111 1227.01,418.672 1230.88,418.672C1233.66,418.672 1235.95,418.027 1237.75,416.738C1239.55,415.449 1241.63,413.277 1244.01,410.224C1244.82,409.206 1245.74,408.697 1246.76,408.697ZM1230.06,390.885C1227.55,390.885 1225.43,392.344 1223.7,395.262C1221.97,398.18 1221.11,401.708 1221.11,405.847L1221.11,406.051C1225.11,405.101 1228.27,403.676 1230.57,401.776C1232.88,399.876 1234.03,397.671 1234.03,395.16C1234.03,393.871 1233.68,392.836 1232.96,392.056C1232.25,391.275 1231.28,390.885 1230.06,390.885Z" style="fill:white;"/>
                <text x="781.507px" y="428.341px" style="font-family:'Pacifico-Regular', 'Pacifico';font-size:101.783px;fill:white;">be<tspan x="869.141px " y="428.341px ">a</tspan>utiesli<tspan x="1169.71px " y="428.341px ">f</tspan></text>
            </g>
        </g>
    </g>
</svg>
