<svg width="328" height="61" viewBox="0 0 328 61" fill="none" xmlns="http://www.w3.org/2000/svg">
<rect width="328" height="60.0024" rx="8" fill="#FFFAE7"/>
<mask id="mask0" mask-type="alpha" maskUnits="userSpaceOnUse" x="0" y="0" width="328" height="61">
<rect width="328" height="60.0024" rx="8" fill="#FFFAE7"/>
</mask>
<g mask="url(#mask0)">
<ellipse cx="265" cy="130.005" rx="171" ry="171.007" fill="#FFF4CB"/>
</g>
<path d="M307.875 34.5863V44.0357C307.875 44.1573 307.843 44.2768 307.782 44.3819C307.72 44.487 307.632 44.574 307.526 44.634C307.421 44.694 307.301 44.7248 307.179 44.7233C307.058 44.7218 306.938 44.6881 306.834 44.6256L301 41.1247L295.166 44.6256C295.061 44.6882 294.942 44.7219 294.82 44.7233C294.699 44.7247 294.579 44.6938 294.473 44.6336C294.367 44.5735 294.279 44.4863 294.218 44.381C294.157 44.2757 294.125 44.1561 294.125 44.0343V34.5877C292.346 33.1632 291.053 31.2214 290.426 29.0304C289.798 26.8395 289.866 24.5077 290.621 22.3572C291.376 20.2067 292.78 18.3438 294.639 17.0258C296.498 15.7079 298.721 15 301 15C303.279 15 305.502 15.7079 307.361 17.0258C309.22 18.3438 310.624 20.2067 311.379 22.3572C312.134 24.5077 312.202 26.8395 311.574 29.0304C310.947 31.2214 309.654 33.1632 307.875 34.5877V34.5863ZM301 34.2494C303.188 34.2494 305.286 33.3802 306.834 31.8329C308.381 30.2857 309.25 28.1872 309.25 25.9991C309.25 23.8109 308.381 21.7124 306.834 20.1652C305.286 18.618 303.188 17.7487 301 17.7487C298.812 17.7487 296.714 18.618 295.166 20.1652C293.619 21.7124 292.75 23.8109 292.75 25.9991C292.75 28.1872 293.619 30.2857 295.166 31.8329C296.714 33.3802 298.812 34.2494 301 34.2494Z" fill="#D9B650"/>
<ellipse cx="301" cy="25.9991" rx="5.5" ry="5.50022" fill="#888888"/>
</svg>
