<svg width="328" height="61" viewBox="0 0 328 61" fill="none" xmlns="http://www.w3.org/2000/svg">
<rect width="328" height="60.0024" rx="8" fill="#FFFAE7"/>
<mask id="mask0" mask-type="alpha" maskUnits="userSpaceOnUse" x="0" y="0" width="328" height="61">
<rect width="328" height="60.0024" rx="8" fill="#FFFAE7"/>
</mask>
<g mask="url(#mask0)">
<ellipse cx="265" cy="130.005" rx="171" ry="171.007" fill="#FFF4CB"/>
</g>
<path d="M35 33.2463V40.1186C35 40.2071 34.9766 40.294 34.932 40.3704C34.8875 40.4469 34.8235 40.5101 34.7465 40.5538C34.6696 40.5974 34.5824 40.6198 34.4939 40.6187C34.4055 40.6176 34.3189 40.5931 34.243 40.5476L30 38.0015L25.757 40.5476C25.681 40.5932 25.5944 40.6177 25.5058 40.6187C25.4173 40.6197 25.33 40.5972 25.253 40.5535C25.176 40.5098 25.112 40.4464 25.0676 40.3698C25.0231 40.2932 24.9998 40.2062 25 40.1176V33.2473C23.7061 32.2114 22.766 30.7991 22.3095 29.2057C21.8529 27.6123 21.9026 25.9164 22.4515 24.3525C23.0004 22.7885 24.0216 21.4336 25.3738 20.4751C26.726 19.5166 28.3425 19.0018 30 19.0018C31.6575 19.0018 33.274 19.5166 34.6262 20.4751C35.9784 21.4336 36.9996 22.7885 37.5485 24.3525C38.0974 25.9164 38.1471 27.6123 37.6905 29.2057C37.234 30.7991 36.2939 32.2114 35 33.2473V33.2463ZM30 33.0013C31.5913 33.0013 33.1174 32.3692 34.2426 31.2439C35.3679 30.1186 36 28.5925 36 27.0011C36 25.4097 35.3679 23.8835 34.2426 22.7583C33.1174 21.633 31.5913 21.0008 30 21.0008C28.4087 21.0008 26.8826 21.633 25.7574 22.7583C24.6321 23.8835 24 25.4097 24 27.0011C24 28.5925 24.6321 30.1186 25.7574 31.2439C26.8826 32.3692 28.4087 33.0013 30 33.0013Z" fill="#D9B650"/>
<ellipse cx="30" cy="27.0011" rx="4" ry="4.00016" fill="#888888"/>
</svg>
